<?xml version="1.0" standalone="no"?>
<!DOCTYPE svg PUBLIC "-//W3C//DTD SVG 20010904//EN"
 "http://www.w3.org/TR/2001/REC-SVG-20010904/DTD/svg10.dtd">
<svg version="1.0" xmlns="http://www.w3.org/2000/svg"
 width="300.000000pt" height="300.000000pt" viewBox="0 0 300.000000 300.000000"
 preserveAspectRatio="xMidYMid meet">
<metadata>
Created by potrace 1.10, written by Peter Selinger 2001-2011
</metadata>
<g transform="translate(0.000000,300.000000) scale(0.100000,-0.100000)"
fill="#000000" stroke="none">
<path d="M1300 2810 c-384 -82 -678 -371 -766 -755 -29 -124 -25 -330 9 -459
42 -158 130 -318 238 -432 l29 -30 3 -175 c2 -163 4 -177 28 -229 34 -74 76
-120 141 -156 51 -28 59 -29 201 -32 l147 -4 0 -68 c0 -67 -1 -68 -34 -88
-115 -68 -104 -242 19 -302 52 -25 100 -25 148 -1 36 18 38 18 74 0 111 -57
243 28 243 157 0 62 -26 112 -73 143 -37 24 -37 25 -37 92 l0 67 148 4 c119 3
154 7 182 22 63 33 115 83 145 137 30 54 30 55 33 239 l3 185 33 35 c204 219
303 516 266 800 -55 428 -365 764 -785 851 -116 24 -280 24 -395 -1z m290 -30
c489 -51 849 -450 850 -941 0 -225 -89 -458 -239 -621 l-61 -66 0 -164 c0
-195 -11 -244 -70 -311 -61 -68 -113 -90 -237 -95 l-103 -5 0 147 c0 125 -2
148 -16 153 -29 11 -35 -20 -32 -159 l3 -138 -82 0 -82 0 -3 148 c-3 123 -5
147 -18 147 -13 0 -15 -24 -18 -147 l-3 -148 -85 0 -85 0 2 146 c0 80 -2 148
-5 151 -3 3 -12 3 -21 0 -13 -5 -15 -30 -15 -153 l0 -147 -103 5 c-124 5 -176
27 -237 95 -59 67 -70 116 -70 313 l0 166 -41 39 c-93 91 -181 243 -225 392
-37 126 -44 311 -16 443 61 296 251 537 523 664 111 51 190 74 296 85 43 5 81
9 84 10 4 0 53 -4 109 -9z m30 -2325 l0 -85 33 -14 c98 -40 112 -173 25 -226
-43 -26 -107 -26 -141 0 -32 25 -42 25 -74 0 -18 -14 -41 -20 -75 -20 -43 0
-55 5 -83 33 -60 60 -59 134 1 186 19 17 41 31 49 31 19 0 27 30 25 103 -1 34
-1 65 -1 70 1 4 55 7 121 7 l120 0 0 -85z"/>
<path d="M989 2307 c-68 -19 -131 -60 -184 -119 -187 -208 -190 -568 -6 -757
75 -77 119 -96 226 -96 111 0 163 22 246 105 133 132 190 357 140 553 -26 99
-52 149 -114 214 -86 91 -204 129 -308 100z m162 -48 c63 -21 64 -34 3 -31
-73 5 -127 -11 -194 -57 -91 -63 -162 -172 -196 -301 -23 -87 -22 -231 1 -288
22 -54 14 -66 -10 -15 -46 97 -58 250 -30 371 45 191 187 332 335 332 31 0 72
-5 91 -11z m102 -93 c74 -36 118 -137 125 -290 5 -118 -7 -184 -54 -282 -64
-136 -174 -217 -294 -218 -97 -1 -147 26 -182 95 -130 260 -25 615 209 704 49
19 147 14 196 -9z"/>
<path d="M1867 2310 c-134 -34 -239 -156 -283 -330 -19 -76 -14 -236 10 -312
46 -146 153 -277 260 -317 146 -55 296 -4 390 132 141 204 117 524 -53 709
-88 96 -219 144 -324 118z m202 -76 c96 -51 172 -163 207 -304 20 -80 15 -241
-11 -315 -19 -53 -44 -91 -30 -45 17 58 17 234 0 300 -37 142 -135 277 -240
330 -41 20 -65 25 -127 25 -51 0 -74 3 -67 10 43 44 187 44 268 -1z m-96 -74
c89 -45 176 -158 213 -279 22 -70 29 -191 15 -263 -7 -35 -26 -93 -43 -130
-27 -59 -37 -70 -77 -90 -64 -32 -158 -31 -226 2 -97 47 -186 167 -220 296
-40 150 -3 379 72 446 57 52 182 60 266 18z"/>
<path d="M1461 1397 c-33 -16 -121 -152 -121 -188 0 -15 11 -41 24 -56 24 -28
26 -28 135 -28 125 0 147 10 157 76 5 29 -2 45 -44 110 -37 57 -58 79 -82 88
-39 13 -38 13 -69 -2z m104 -99 c75 -103 62 -128 -65 -128 -90 0 -110 8 -110
45 0 21 36 82 73 123 32 35 53 27 102 -40z"/>
<path d="M941 1285 c-8 -54 -2 -325 8 -360 22 -83 98 -169 176 -199 41 -17 85
-24 91 -15 3 5 -5 9 -18 9 -38 0 -122 45 -163 86 -70 72 -79 105 -86 314 -3
102 -6 176 -8 165z"/>
<path d="M2049 1120 c-4 -166 -7 -190 -27 -231 -41 -83 -120 -147 -209 -168
l-38 -9 34 -1 c44 -1 128 42 170 87 64 70 75 110 79 277 2 83 2 168 0 190 -2
22 -6 -43 -9 -145z"/>
<path d="M1465 229 c-31 -21 -108 -23 -149 -4 -14 6 -17 5 -12 -3 4 -6 25 -16
47 -22 32 -9 52 -8 95 5 51 15 60 15 104 0 54 -18 111 -13 132 13 11 13 10 14
-9 4 -34 -19 -104 -14 -141 8 -18 11 -33 20 -35 19 -1 0 -15 -9 -32 -20z"/>
</g>
</svg>
